# xmcd
#
# Track frame offsets:
#	150
#	4200
#	11625
#	28694
#	43549
#	60153
#
# Disc length: 1067 seconds
#
# Revision: 0
# Processed by: cddbd v1.5.1PL0 Copyright (c) Steve Scherf et al.
# Submitted via: dBpowerAMP V4.0
#
DISCID=3c042906
DTITLE=BMC - BMC EP
DYEAR=2005
DGENRE=Rap
TTITLE0=Intro
TTITLE1=Tyson-BeatBox
TTITLE2=Party 的歌
TTITLE3=英雄
TTITLE4=一夜情
TTITLE5=真實的世界
EXTD=this is WJL aka 蛋頭\nthis album is "BMC EP 2005"
EXTT0=
EXTT1=
EXTT2=
EXTT3=
EXTT4=
EXTT5=
PLAYORDER=
